<svg version="1.1" id="Layer_1" xmlns="http://www.w3.org/2000/svg" xmlns:xlink="http://www.w3.org/1999/xlink" x="0px" y="0px"
	 width="100%" viewBox="0 0 192 192" enable-background="new 0 0 192 192" xml:space="preserve">
<path fill="#FFFFFF" opacity="1.000000" stroke="none" 
	d="
M1.000002,186.000000 
	C1.000000,126.979103 1.000000,67.958206 1.294219,8.755864 
	C3.725626,6.049609 5.862813,3.524805 8.000000,1.000000 
	C67.020897,1.000000 126.041786,1.000000 185.244141,1.294221 
	C187.950394,3.725629 190.475189,5.862814 193.000000,8.000000 
	C193.000000,67.020897 193.000000,126.041786 192.705780,185.244141 
	C190.274384,187.950394 188.137192,190.475204 186.000000,193.000000 
	C126.979103,193.000000 67.958206,193.000000 8.755867,192.705780 
	C6.049613,190.274368 3.524809,188.137177 1.000002,186.000000 
M137.056870,164.253601 
	C146.242035,164.253601 155.427185,164.253601 164.912369,164.253601 
	C164.725937,164.465714 164.927582,164.343475 164.927841,164.220810 
	C164.961502,148.388901 165.168396,132.553864 164.907455,116.726555 
	C164.803101,110.396919 164.169113,103.981773 162.905945,97.782898 
	C158.888412,78.067116 139.262787,67.034164 119.659515,72.940254 
	C111.696922,75.339241 105.097778,79.620667 99.018417,86.582062 
	C99.018417,81.498535 99.018417,77.443031 99.018417,73.204117 
	C90.215538,73.204117 81.809135,73.204117 73.201241,73.204117 
	C73.201241,103.794930 73.201241,134.198868 73.201241,164.797943 
	C82.467865,164.797943 91.539284,164.797943 101.000000,164.797943 
	C101.000000,162.979538 101.000000,161.356583 101.000000,159.733627 
	C101.000000,144.234467 101.106903,128.734283 100.957626,113.236549 
	C100.875526,104.713913 108.144562,94.447739 121.121338,94.732193 
	C129.104813,94.907204 137.173538,102.972778 137.056015,112.789543 
	C136.854523,129.619537 137.002609,146.453705 137.056870,164.253601 
M29.000000,126.500000 
	C29.000000,139.262405 29.000000,152.024826 29.000000,164.711517 
	C38.646896,164.711517 47.718575,164.711517 56.713932,164.711517 
	C56.713932,134.021179 56.713932,103.620163 56.713932,73.288437 
	C47.353172,73.288437 38.281204,73.288437 29.000000,73.288437 
	C29.000000,90.883995 29.000000,108.192001 29.000000,126.500000 
M46.027855,57.999146 
	C55.171204,55.009209 58.932877,49.373386 57.999233,40.063354 
	C57.278568,32.877094 50.085449,27.726719 41.151367,28.000042 
	C34.837353,28.193209 28.648020,34.581131 27.922417,40.760616 
	C26.692793,51.232510 35.209259,59.717278 46.027855,57.999146 
z"/>
<path fill="#000000" opacity="1.000000" stroke="none" 
	d="
M7.502095,1.000000 
	C5.862813,3.524805 3.725626,6.049609 1.294219,8.287207 
	C1.000000,5.752362 1.000000,3.504725 1.000000,1.000000 
	C2.998142,1.000000 5.001166,1.000000 7.502095,1.000000 
z"/>
<path fill="#000000" opacity="1.000000" stroke="none" 
	d="
M193.000000,7.502095 
	C190.475189,5.862814 187.950394,3.725629 185.712799,1.294221 
	C188.247635,1.000000 190.495285,1.000000 193.000000,1.000000 
	C193.000000,2.998142 193.000000,5.001166 193.000000,7.502095 
z"/>
<path fill="#000000" opacity="1.000000" stroke="none" 
	d="
M1.000002,186.497910 
	C3.524809,188.137177 6.049613,190.274368 8.287210,192.705780 
	C5.752364,193.000000 3.504728,193.000000 1.000000,193.000000 
	C1.000000,191.001862 1.000000,188.998840 1.000002,186.497910 
z"/>
<path fill="#000000" opacity="1.000000" stroke="none" 
	d="
M186.497925,193.000000 
	C188.137192,190.475204 190.274384,187.950394 192.705780,185.712799 
	C193.000000,188.247635 193.000000,190.495270 193.000000,193.000000 
	C191.001862,193.000000 188.998840,193.000000 186.497925,193.000000 
z"/>
<path fill="#000000" opacity="1.000000" stroke="none" 
	d="
M137.030396,163.769867 
	C137.002609,146.453705 136.854523,129.619537 137.056015,112.789543 
	C137.173538,102.972778 129.104813,94.907204 121.121338,94.732193 
	C108.144562,94.447739 100.875526,104.713913 100.957626,113.236549 
	C101.106903,128.734283 101.000000,144.234467 101.000000,159.733627 
	C101.000000,161.356583 101.000000,162.979538 101.000000,164.797943 
	C91.539284,164.797943 82.467865,164.797943 73.201241,164.797943 
	C73.201241,134.198868 73.201241,103.794930 73.201241,73.204117 
	C81.809135,73.204117 90.215538,73.204117 99.018417,73.204117 
	C99.018417,77.443031 99.018417,81.498535 99.018417,86.582062 
	C105.097778,79.620667 111.696922,75.339241 119.659515,72.940254 
	C139.262787,67.034164 158.888412,78.067116 162.905945,97.782898 
	C164.169113,103.981773 164.803101,110.396919 164.907455,116.726555 
	C165.168396,132.553864 164.961502,148.388901 164.927841,164.220810 
	C164.927582,164.343475 164.725937,164.465714 164.912369,164.253601 
	C155.427185,164.253601 146.242035,164.253601 137.030396,163.769867 
z"/>
<path fill="#000000" opacity="1.000000" stroke="none" 
	d="
M29.000000,126.000000 
	C29.000000,108.192001 29.000000,90.883995 29.000000,73.288437 
	C38.281204,73.288437 47.353172,73.288437 56.713932,73.288437 
	C56.713932,103.620163 56.713932,134.021179 56.713932,164.711517 
	C47.718575,164.711517 38.646896,164.711517 29.000000,164.711517 
	C29.000000,152.024826 29.000000,139.262405 29.000000,126.000000 
z"/>
<path fill="#000000" opacity="1.000000" stroke="none" 
	d="
M45.596424,57.999542 
	C35.209259,59.717278 26.692793,51.232510 27.922417,40.760616 
	C28.648020,34.581131 34.837353,28.193209 41.151367,28.000042 
	C50.085449,27.726719 57.278568,32.877094 57.999233,40.063354 
	C58.932877,49.373386 55.171204,55.009209 45.596424,57.999542 
z"/>
</svg>